<svg xmlns="http://www.w3.org/2000/svg" fill="none" viewBox="0 0 30 30" id="Water-Drop-Fill--Streamline-Rounded-Fill-Material" height="30" width="30">
  <desc>
    Water Drop Fill Streamline Icon: https://streamlinehq.com
  </desc>
  <path fill="#000000" d="M15 27.5c-2.8541875 0 -5.234375 -0.9791875 -7.140625 -2.9375C5.953125 22.6041875 5 20.166687500000002 5 17.25c0 -1.3333125000000001 0.30208124999999997 -2.65625 0.90625 -3.96875 0.6041875 -1.3125 1.359375 -2.5729375 2.265625 -3.78125 0.90625 -1.2083125 1.8854375 -2.3385625 2.9375 -3.390625C12.161437500000002 5.05729375 13.1458125 4.125 14.0625 3.3125c0.1458125 -0.125 0.296875 -0.21354374999999998 0.453125 -0.265625 0.15625 -0.05208125 0.3176875 -0.078125 0.484375 -0.078125 0.1666875 0 0.328125 0.026043749999999997 0.484375 0.078125s0.3073125 0.140625 0.453125 0.265625c0.9166874999999999 0.8125 1.9010625 1.74479375 2.953125 2.796875 1.0520625 1.0520625 2.03125 2.1823125 2.9375 3.390625 0.90625 1.2083125 1.6614375000000001 2.46875 2.265625 3.78125 0.6041875 1.3125 0.90625 2.6354375 0.90625 3.96875 0 2.9166874999999997 -0.953125 5.3541875 -2.859375 7.3125C20.234375 26.5208125 17.854187500000002 27.5 15 27.5Zm-0.03125 -4c0.3333125 0 0.5885625 -0.0573125 0.765625 -0.171875 0.1770625 -0.1145625 0.265625 -0.2864375 0.265625 -0.515625 0 -0.22918750000000002 -0.08856249999999999 -0.40625 -0.265625 -0.53125 -0.1770625 -0.125 -0.4426875 -0.1875 -0.796875 -0.1875 -0.875 0 -1.765625 -0.2760625 -2.671875 -0.828125 -0.90625 -0.5520625 -1.484375 -1.5260625 -1.734375 -2.921875 -0.041687499999999995 -0.1875 -0.1354375 -0.3385625 -0.28125 -0.453125 -0.1458125 -0.1145625 -0.3020625 -0.171875 -0.46875 -0.171875 -0.22918750000000002 0 -0.40625 0.08856249999999999 -0.53125 0.265625 -0.125 0.1770625 -0.1666875 0.359375 -0.125 0.546875 0.3125 1.75 1.0520625 3.015625 2.21875 3.796875 1.1666875 0.78125 2.375 1.171875 3.625 1.171875Z" stroke-width="0.625"></path>
</svg>